<svg xmlns="http://www.w3.org/2000/svg" xmlns:xlink="http://www.w3.org/1999/xlink" width="268" height="99" viewBox="0 0 268 99">
  <defs>
    <linearGradient id="linear-gradient" x1="0.5" x2="0.756" y2="0.5" gradientUnits="objectBoundingBox">
      <stop offset="0" stop-color="#19a9fc"/>
      <stop offset="1" stop-color="#5351fc"/>
    </linearGradient>
    <linearGradient id="linear-gradient-2" x2="0.5" y2="1" xlink:href="#linear-gradient"/>
    <clipPath id="clip-AFInvoices">
      <rect width="268" height="99"/>
    </clipPath>
  </defs>
  <g id="AFInvoices" clip-path="url(#clip-AFInvoices)">
    <g id="Group_809" data-name="Group 809" transform="translate(8885 -14847)">
      <path id="Path_552" data-name="Path 552" d="M-73.035,0V-32.04H-79.29V0Zm26.5,0V-14.985c0-2.565-.495-4.77-2.385-6.66a7.613,7.613,0,0,0-5.535-2.07,8.023,8.023,0,0,0-5.85,2.43v-2.16h-5.715V0h5.85V-14.175c0-3.2,2.07-4.275,3.915-4.275s3.87,1.08,3.87,4.275V0Zm25.02-23.445h-6.165L-32.4-8.955l-4.77-14.49h-6.165L-34.7,0h4.59ZM.36-11.745c0-4.23-.54-6.885-2.655-9.09a9.718,9.718,0,0,0-7.29-2.88,9.608,9.608,0,0,0-7.245,2.88c-2.115,2.2-2.655,4.86-2.655,9.09,0,4.275.54,6.93,2.655,9.135A9.608,9.608,0,0,0-9.585.27,9.718,9.718,0,0,0-2.3-2.61C-.18-4.815.36-7.47.36-11.745Zm-5.85,0c0,2.43-.135,4.5-1.35,5.715A3.7,3.7,0,0,1-9.585-4.995a3.593,3.593,0,0,1-2.7-1.035c-1.215-1.215-1.35-3.285-1.35-5.715s.135-4.455,1.35-5.67a3.593,3.593,0,0,1,2.7-1.035A3.7,3.7,0,0,1-6.84-17.415C-5.625-16.2-5.49-14.175-5.49-11.745ZM11.79,0V-23.445H5.94V0Zm.045-27.45v-4.77H5.85v4.77ZM35.37-2.925,31.41-6.84a4.734,4.734,0,0,1-3.78,1.845,4.058,4.058,0,0,1-3.33-1.53c-.9-1.125-1.305-2.745-1.305-5.22s.4-4.05,1.305-5.175a4.058,4.058,0,0,1,3.33-1.53A4.734,4.734,0,0,1,31.41-16.6l3.96-3.96a9.986,9.986,0,0,0-7.74-3.15c-4.68,0-10.485,2.475-10.485,11.97S22.95.27,27.63.27A10.02,10.02,0,0,0,35.37-2.925ZM58.365-9.9v-2.61c0-6.435-3.69-11.2-10.215-11.2-6.075,0-10.215,4.32-10.215,11.97C37.935-2.25,43.245.27,48.78.27a11.164,11.164,0,0,0,8.91-3.69L54.135-6.885a6.489,6.489,0,0,1-5.31,2.2c-3.285,0-5.13-2.2-5.13-5.22ZM52.6-13.9h-8.91a6.462,6.462,0,0,1,.54-2.52,4.072,4.072,0,0,1,3.915-2.43,4.072,4.072,0,0,1,3.915,2.43A6.462,6.462,0,0,1,52.6-13.9ZM81.4-7.38c0-3.96-2.34-6.435-6.975-6.885l-3.69-.36c-2.07-.18-2.43-1.17-2.43-2.025,0-1.17.99-2.25,3.33-2.25,2.025,0,4.1.36,5.445,1.575l3.6-3.645c-2.25-2.115-5.31-2.745-8.955-2.745-4.77,0-9.045,2.61-9.045,7.47,0,4.32,2.61,6.165,6.84,6.57l3.69.36c1.845.18,2.475.99,2.475,2.16,0,1.755-2.115,2.43-4.14,2.43A8.513,8.513,0,0,1,65.3-6.93L61.47-3.105C64.44-.135,67.77.27,71.46.27,77,.27,81.4-2.2,81.4-7.38Z" transform="translate(-8722.848 14912.499)" fill="#2f3349"/>
      <g id="Group_806" data-name="Group 806" transform="translate(-8860.557 14875.276)">
        <path id="Path_38" data-name="Path 38" d="M1259.73,274.867c.189-.212.355-.415.54-.6q2.921-2.925,5.847-5.844,2.736-2.736,5.469-5.475l6.828-6.828c.2-.2.2-.2.393,0l7.106,7.111q1.871,1.871,3.743,3.74,3.632,3.633,7.26,7.269c.2.2.369.412.569.638a21.193,21.193,0,1,0-37.754-.007Zm3.933,5.461a21.143,21.143,0,0,0,10.413,5.663,20.9,20.9,0,0,0,6.749.368l.046-.085-6.885-6.863,4.7-4.711a.993.993,0,0,0,.121.183q4.589,4.595,9.179,9.189a.251.251,0,0,0,.354.055,21.526,21.526,0,0,0,5.045-3.634c.061-.059.116-.124.138-.147L1278.587,265.4Z" transform="translate(-1257.412 -244.032)" fill="#fff"/>
        <path id="Path_39" data-name="Path 39" d="M1259.73,274.867a21.194,21.194,0,1,1,37.754.007c-.2-.225-.374-.442-.569-.638q-3.627-3.637-7.26-7.269-1.87-1.871-3.743-3.74l-7.106-7.111c-.2-.2-.194-.2-.393,0l-6.828,6.828q-2.735,2.737-5.469,5.475-2.923,2.923-5.847,5.844C1260.085,274.451,1259.919,274.655,1259.73,274.867Z" transform="translate(-1257.412 -244.032)" fill="url(#linear-gradient)"/>
        <path id="Path_40" data-name="Path 40" d="M1328.2,500.973l14.925-14.926,14.936,14.942c-.021.023-.077.088-.138.147a21.524,21.524,0,0,1-5.045,3.634.251.251,0,0,1-.354-.055q-4.586-4.6-9.179-9.189a.985.985,0,0,1-.121-.183l-4.7,4.711,6.885,6.864-.046.085a20.9,20.9,0,0,1-6.749-.368A21.144,21.144,0,0,1,1328.2,500.973Z" transform="translate(-1321.954 -464.677)" fill="url(#linear-gradient-2)"/>
      </g>
    </g>
  </g>
</svg>
